<?xml version="1.0" standalone="no"?>
<!DOCTYPE svg PUBLIC "-//W3C//DTD SVG 20010904//EN"
 "http://www.w3.org/TR/2001/REC-SVG-20010904/DTD/svg10.dtd">
<svg version="1.0" xmlns="http://www.w3.org/2000/svg"
 width="989.000000pt" height="1280.000000pt" viewBox="0 0 989.000000 1280.000000"
 preserveAspectRatio="xMidYMid meet">
<metadata>
Created by potrace 1.15, written by Peter Selinger 2001-2017
</metadata>
<g transform="translate(0.000000,1280.000000) scale(0.100000,-0.100000)"
fill="#000000" stroke="none">
<path d="M4413 12580 c-115 -21 -251 -86 -383 -184 -103 -77 -177 -151 -208
-211 -23 -43 -27 -62 -27 -140 0 -82 3 -95 31 -145 34 -58 40 -90 54 -266 5
-71 18 -142 36 -198 l27 -87 -22 -15 c-36 -25 -29 -79 17 -124 20 -20 42 -39
48 -41 18 -7 108 -149 167 -264 59 -116 109 -183 167 -229 33 -26 40 -28 113
-24 93 6 103 -4 61 -58 -16 -20 -38 -51 -49 -70 -11 -18 -30 -44 -42 -58 -13
-15 -23 -30 -23 -34 0 -13 85 -92 100 -92 7 0 11 -3 7 -6 -3 -3 11 -22 32 -43
69 -68 88 -122 59 -174 -14 -24 -27 -301 -29 -594 -1 -149 -3 -172 -18 -177
-19 -7 -28 -13 -141 -87 -47 -31 -101 -64 -120 -74 -19 -9 -49 -28 -65 -40
-29 -22 -42 -23 -230 -27 -252 -5 -266 -10 -320 -122 -19 -40 -35 -79 -35 -87
0 -13 35 -122 70 -219 7 -19 21 -44 31 -56 11 -11 19 -29 19 -40 0 -32 26 -59
70 -74 38 -13 46 -12 78 6 22 11 45 36 59 63 33 63 38 68 91 75 71 9 146 49
211 111 33 31 71 58 87 61 15 3 39 11 53 18 68 34 102 47 171 65 127 33 130
33 130 16 0 -17 84 -105 141 -147 26 -19 40 -39 49 -75 12 -43 41 -118 82
-214 8 -19 21 -52 28 -74 7 -22 21 -58 32 -80 23 -46 33 -160 33 -365 0 -109
-6 -161 -29 -270 -15 -74 -32 -178 -36 -230 -5 -52 -14 -120 -20 -150 -6 -30
-12 -93 -14 -140 -5 -127 -20 -170 -57 -170 -20 0 -366 -156 -389 -175 -19
-16 -199 -125 -206 -125 -7 0 -54 -37 -118 -92 -24 -21 -47 -38 -51 -38 -11 0
-102 -95 -122 -128 -9 -15 -40 -63 -68 -107 -134 -209 -169 -309 -145 -417 19
-86 61 -200 91 -245 47 -71 54 -102 34 -148 -56 -130 -135 -433 -135 -519 0
-10 -22 -63 -49 -119 -26 -56 -59 -136 -71 -177 -13 -41 -35 -94 -48 -119 -52
-98 -71 -159 -73 -239 -3 -141 -11 -164 -217 -592 -101 -211 -147 -315 -156
-352 -6 -26 -9 -27 -59 -25 l-52 2 -5 -40 c-4 -33 -9 -40 -26 -40 -35 0 -61
-32 -69 -83 -14 -90 -15 -147 -3 -169 8 -17 8 -33 -2 -66 -10 -37 -17 -46 -43
-54 -27 -7 -35 -17 -49 -61 -9 -28 -20 -76 -23 -107 -6 -46 -5 -56 10 -61 23
-9 12 -84 -22 -142 -31 -54 -43 -92 -49 -157 -3 -28 -12 -55 -21 -62 -12 -9
-14 -23 -10 -54 4 -34 1 -46 -16 -63 -34 -35 -81 -141 -72 -163 17 -39 2 -78
-65 -172 -37 -53 -79 -119 -93 -146 -14 -28 -37 -57 -51 -64 -14 -8 -26 -18
-26 -23 0 -4 -6 -8 -14 -8 -8 0 -28 -33 -47 -77 -34 -82 -34 -85 -24 -120 5
-16 -1 -28 -24 -49 -20 -17 -31 -37 -31 -53 0 -22 -5 -27 -27 -29 -14 -1 -41
-13 -59 -27 -18 -14 -37 -25 -43 -25 -6 0 -11 -4 -11 -10 0 -5 -16 -31 -36
-57 -22 -28 -34 -54 -31 -65 4 -13 -24 -48 -102 -126 -97 -97 -118 -112 -213
-159 -111 -55 -158 -96 -178 -159 -7 -21 -19 -34 -35 -38 -14 -4 -25 -13 -25
-22 0 -8 -7 -22 -15 -30 -16 -16 -20 -116 -6 -164 8 -28 185 -155 237 -169 19
-5 46 -18 61 -28 45 -31 90 -45 120 -39 21 5 36 1 55 -14 31 -24 100 -27 118
-5 16 19 35 19 70 -2 25 -14 35 -15 88 -3 69 14 122 43 122 65 0 19 39 45 65
43 31 -2 115 63 131 100 11 27 18 32 33 27 29 -9 104 50 127 100 15 32 40 54
122 108 l103 68 49 -16 c46 -15 50 -15 88 4 22 11 42 30 45 42 5 17 11 20 31
15 32 -8 94 29 102 62 4 12 12 22 20 22 11 0 14 22 14 105 0 101 -9 142 -37
176 -9 10 -15 59 -19 139 -3 75 -11 137 -21 161 -15 38 -14 40 10 69 33 38 41
64 28 88 -7 13 -6 24 3 38 20 29 69 129 117 234 56 125 190 370 299 545 114
185 218 368 275 485 26 52 52 103 58 112 9 13 7 20 -12 35 l-22 18 27 70 c14
39 30 84 35 100 4 17 13 48 19 70 15 55 25 96 45 190 19 88 17 82 40 215 9 52
20 104 26 115 5 11 9 29 8 40 0 33 27 159 39 182 30 54 322 432 335 433 4 0 7
-8 7 -17 0 -28 77 -159 107 -183 15 -12 35 -40 43 -63 15 -38 42 -84 86 -144
8 -12 22 -54 31 -94 9 -46 24 -84 39 -102 23 -27 31 -70 25 -136 -1 -13 -22
-65 -47 -117 -44 -94 -52 -133 -38 -204 5 -25 16 -36 44 -49 36 -16 36 -17 22
-39 -10 -15 -16 -54 -18 -115 -4 -149 -43 -243 -190 -462 -41 -61 -54 -98 -65
-195 -4 -41 -11 -91 -15 -112 -9 -53 21 -145 59 -183 83 -83 450 -123 528 -58
18 16 36 22 47 19 22 -7 57 18 75 54 8 17 21 25 38 25 36 1 110 65 123 106 8
25 17 35 37 37 18 2 35 18 62 60 20 31 37 67 37 79 0 31 21 73 36 73 24 0 64
95 64 150 0 58 26 193 44 230 7 15 19 24 29 22 20 -3 47 50 47 91 0 14 10 36
21 51 38 48 60 141 61 256 0 93 -2 112 -25 162 -15 31 -42 79 -61 105 -19 26
-43 71 -54 100 -11 29 -35 74 -55 100 -19 26 -42 72 -51 100 -10 29 -22 55
-27 58 -28 18 -28 43 1 80 36 45 55 103 46 139 -9 38 -38 32 -76 -16 -33 -41
-33 -41 -42 -17 -5 13 -14 45 -19 71 -10 45 -9 48 35 113 48 70 58 115 33 149
-19 26 -51 13 -77 -31 -11 -19 -24 -33 -27 -29 -4 4 -10 37 -14 74 -7 60 -5
71 16 102 26 40 39 98 26 119 -7 11 -13 10 -34 -3 l-25 -17 -12 86 c-7 47 -9
101 -6 120 5 26 2 39 -12 53 -17 17 -32 82 -62 272 -4 25 -13 57 -19 71 -12
24 -9 35 39 125 66 124 118 202 139 208 81 24 221 59 241 62 13 1 45 5 70 9
35 5 60 0 115 -21 212 -80 400 -60 594 64 220 141 340 374 401 782 11 71 14
304 6 380 -15 141 -53 277 -108 390 -62 128 -67 145 -83 295 -7 66 -21 156
-30 200 -24 117 -24 313 0 585 3 30 7 80 10 110 2 30 10 98 17 150 16 118 16
534 0 610 -6 30 -14 82 -17 115 -3 33 -10 89 -16 125 -5 36 -11 79 -13 95 -2
17 -9 50 -15 75 -6 25 -16 92 -21 150 -5 58 -12 120 -16 139 -5 27 -4 33 7 29
75 -28 329 -89 614 -149 127 -26 272 -60 324 -76 91 -27 95 -29 104 -62 4 -18
15 -44 23 -56 8 -12 12 -24 9 -27 -3 -2 22 -34 56 -69 33 -35 66 -71 72 -79
39 -50 240 -182 370 -244 56 -26 110 -60 123 -76 27 -31 113 -77 154 -82 14
-1 49 -18 79 -36 124 -77 219 -94 376 -67 55 10 107 17 115 17 30 -1 116 21
152 39 33 17 78 25 78 15 0 -2 -7 -17 -15 -32 -18 -36 -19 -94 -2 -118 8 -12
23 -17 41 -14 22 2 39 19 79 76 l51 74 -12 54 c-8 38 -8 63 0 84 5 17 8 50 6
75 -3 41 -1 45 24 54 38 14 52 53 33 91 -8 16 -19 32 -25 35 -5 3 -10 14 -10
23 -1 20 -28 55 -55 69 -11 6 -63 22 -116 36 -90 24 -104 25 -194 16 -54 -5
-99 -8 -102 -5 -2 2 22 23 54 47 32 23 81 58 108 79 28 20 69 45 93 55 56 24
112 86 112 124 0 54 -50 82 -99 57 -17 -9 -52 -21 -78 -26 -56 -13 -205 -94
-367 -202 -109 -73 -187 -109 -194 -89 -2 5 -12 19 -23 32 -10 12 -19 26 -19
31 0 7 -52 105 -95 176 -33 55 -107 142 -214 252 -68 69 -150 154 -184 189
-92 95 -183 155 -257 172 -145 33 -187 50 -450 182 -206 104 -257 123 -397
142 -207 28 -270 43 -315 71 -170 107 -299 152 -468 161 -159 9 -321 -32 -482
-122 -69 -39 -137 -43 -218 -12 -36 13 -82 25 -103 25 -44 2 -113 45 -152 96
-14 19 -43 41 -64 49 -26 11 -49 33 -76 71 -33 48 -37 60 -32 96 3 27 15 49
34 68 18 17 42 61 63 117 30 78 35 102 35 180 0 63 -5 100 -17 125 -9 19 -19
67 -22 105 -8 99 -50 246 -94 329 -65 123 -202 251 -327 303 -122 51 -266 72
-372 53z m-451 -1357 c16 -32 16 -32 -2 -23 -44 24 -65 91 -37 119 10 10 13 5
17 -26 3 -21 13 -53 22 -70z"/>
</g>
</svg>
